<svg xmlns="http://www.w3.org/2000/svg" xmlns:xlink="http://www.w3.org/1999/xlink" width="1000" zoomAndPan="magnify" viewBox="0 0 750 749.999995" height="1000" preserveAspectRatio="xMidYMid meet" version="1.0"><defs><clipPath id="5c964574de"><path d="M 45.589844 45.589844 L 704.410156 45.589844 L 704.410156 704.410156 L 45.589844 704.410156 Z M 45.589844 45.589844 " clip-rule="nonzero"/></clipPath><clipPath id="5dcc1af808"><path d="M 0.589844 0.589844 L 659.410156 0.589844 L 659.410156 659.410156 L 0.589844 659.410156 Z M 0.589844 0.589844 " clip-rule="nonzero"/></clipPath><clipPath id="5cec3d2f56"><rect x="0" width="660" y="0" height="660"/></clipPath><clipPath id="d72a984af6"><path d="M 105.636719 105.636719 L 644.363281 105.636719 L 644.363281 644.363281 L 105.636719 644.363281 Z M 105.636719 105.636719 " clip-rule="nonzero"/></clipPath><clipPath id="fd75da48b8"><path d="M 0.636719 0.636719 L 539.363281 0.636719 L 539.363281 539.363281 L 0.636719 539.363281 Z M 0.636719 0.636719 " clip-rule="nonzero"/></clipPath><clipPath id="150f19e189"><rect x="0" width="540" y="0" height="540"/></clipPath><clipPath id="287cdb0e17"><path d="M 195.097656 195.097656 L 554.902344 195.097656 L 554.902344 554.902344 L 195.097656 554.902344 Z M 195.097656 195.097656 " clip-rule="nonzero"/></clipPath><clipPath id="2d5cebf354"><path d="M 0.0976562 0.0976562 L 359.902344 0.0976562 L 359.902344 359.902344 L 0.0976562 359.902344 Z M 0.0976562 0.0976562 " clip-rule="nonzero"/></clipPath><clipPath id="255ba7282a"><rect x="0" width="360" y="0" height="360"/></clipPath><clipPath id="3a906d0ec4"><path d="M 288.234375 288.234375 L 461.765625 288.234375 L 461.765625 461.765625 L 288.234375 461.765625 Z M 288.234375 288.234375 " clip-rule="nonzero"/></clipPath><clipPath id="058ff6dd3b"><path d="M 0.234375 0.234375 L 173.765625 0.234375 L 173.765625 173.765625 L 0.234375 173.765625 Z M 0.234375 0.234375 " clip-rule="nonzero"/></clipPath><clipPath id="efbecf6b46"><rect x="0" width="174" y="0" height="174"/></clipPath></defs><g clip-path="url(#5c964574de)"><g transform="matrix(1, 0, 0, 1, 45, 45)"><g clip-path="url(#5cec3d2f56)"><g clip-path="url(#5dcc1af808)"><path fill="#545454" d="M 0.589844 0.589844 L 659.410156 0.589844 L 659.410156 659.410156 L 0.589844 659.410156 Z M 0.589844 0.589844 " fill-opacity="1" fill-rule="nonzero"/></g></g></g></g><g clip-path="url(#d72a984af6)"><g transform="matrix(1, 0, 0, 1, 105, 105)"><g clip-path="url(#150f19e189)"><g clip-path="url(#fd75da48b8)"><path fill="#ffd21f" d="M 0.636719 0.636719 L 539.363281 0.636719 L 539.363281 539.363281 L 0.636719 539.363281 Z M 0.636719 0.636719 " fill-opacity="1" fill-rule="nonzero"/></g></g></g></g><g clip-path="url(#287cdb0e17)"><g transform="matrix(1, 0, 0, 1, 195, 195)"><g clip-path="url(#255ba7282a)"><g clip-path="url(#2d5cebf354)"><path fill="#5170ff" d="M 0.0976562 0.0976562 L 359.902344 0.0976562 L 359.902344 359.902344 L 0.0976562 359.902344 Z M 0.0976562 0.0976562 " fill-opacity="1" fill-rule="nonzero"/></g></g></g></g><g clip-path="url(#3a906d0ec4)"><g transform="matrix(1, 0, 0, 1, 288, 288)"><g clip-path="url(#efbecf6b46)"><g clip-path="url(#058ff6dd3b)"><path fill="#545454" d="M 0.234375 0.234375 L 173.765625 0.234375 L 173.765625 173.765625 L 0.234375 173.765625 Z M 0.234375 0.234375 " fill-opacity="1" fill-rule="nonzero"/></g></g></g></g></svg>