<?xml version="1.0" encoding="UTF-8"?><svg id="Layer_2" xmlns="http://www.w3.org/2000/svg" viewBox="0 0 576.42 62.22"><defs><style>.cls-1{fill:#3e8dff;}</style></defs><g id="Layer_1-2"><g><path class="cls-1" d="M26.09,40.88V18.33c2.63,1.29,4.66,3.54,5.67,6.28h11.12c-.74-4.26-3.09-8.08-7.02-11.44-2.77-2.43-6.15-4.07-9.77-4.73V0h-8.58V8.38C7.49,10.26,0,19.19,0,28.96c0,6.28,1.91,11.56,6.4,15.94,3.03,3.01,6.91,5.04,11.11,5.82v11.49l4.29-5.02,4.29,5.02v-11.48c4.03-.77,7.76-2.68,10.74-5.5,2.98-2.83,5.08-6.45,6.06-10.44h-11.12c-1.11,2.64-3.12,4.79-5.67,6.09Zm-15.48-11.42c0-4.96,2.69-9.46,6.9-11.27v22.75c-4.21-1.83-6.9-6.33-6.9-11.48Z"/><g><path class="cls-1" d="M47.55,32.01c0-12.59,9.07-22.05,21.45-22.05s21.5,9.18,21.5,20.84-9.35,21.39-21.01,21.39-21.94-8.14-21.94-20.18Zm32.56-.88c0-6.38-4.56-12.04-11.11-12.04s-11.05,5.44-11.05,11.88,4.56,12.1,11.22,12.1,10.94-5.44,10.94-11.93Z"/><path class="cls-1" d="M96.12,51.43V10.73h10.39V51.43h-10.39Z"/><path class="cls-1" d="M139.18,51.43l-15.62-24.86,.27,24.86h-9.95V10.73h8.96l15.84,25.74-.44-25.74h9.95V51.43h-9.02Z"/><path class="cls-1" d="M171.57,22.61c-.44-2.91-1.65-3.96-3.68-3.96-1.92,0-3.57,1.37-3.57,3.19,0,2.42,2.2,3.52,6.65,5.44,8.96,3.85,11.22,7.09,11.22,12.43,0,7.86-5.39,12.48-14.19,12.48s-14.68-4.62-14.68-13.36v-.88h10.34c.06,3.35,1.7,5.55,4.29,5.55,2.14,0,3.9-1.7,3.9-3.9,0-3.24-4.51-4.67-8.19-6.16-6.65-2.69-9.68-6.21-9.68-11.49,0-6.93,6.71-11.99,14.19-11.99,2.69,0,5.06,.6,7.2,1.7,4.34,2.25,6.43,5.5,6.49,10.94h-10.28Z"/><path class="cls-1" d="M204.14,51.43V10.73h22.22v9.13h-12.26v6.93h11.82v9.13h-11.82v15.51h-9.95Z"/><path class="cls-1" d="M230.21,32.01c0-12.59,9.07-22.05,21.45-22.05s21.5,9.18,21.5,20.84-9.35,21.39-21.01,21.39-21.94-8.14-21.94-20.18Zm32.56-.88c0-6.38-4.56-12.04-11.11-12.04s-11.05,5.44-11.05,11.88,4.56,12.1,11.22,12.1,10.94-5.44,10.94-11.93Z"/><path class="cls-1" d="M298.24,51.43l-9.4-13.14h-.11v13.14h-9.95V10.73h13.31c4.23,0,7.48,.55,9.62,1.48,4.4,1.98,7.48,6.76,7.48,12.54,0,6.43-3.85,11.71-10.12,12.81l11.05,13.86h-11.88Zm-5.66-20.24c4.12,0,6.65-1.92,6.65-5.83,0-3.52-2.64-5.5-6.54-5.5h-3.96v11.33h3.85Z"/><path class="cls-1" d="M361.16,26.19c-1.76-4.45-5.61-7.09-9.84-7.09-6.49,0-10.89,5.55-10.89,11.88s4.51,12.1,10.94,12.1c4.12,0,7.64-2.31,9.79-6.87h10.89c-2.53,9.79-10.94,16-20.57,16-5.66,0-11-1.98-15.18-6.1-4.4-4.29-6.27-9.46-6.27-15.62,0-10.78,9.29-20.51,20.95-20.51,5.61,0,10.12,1.54,14.19,5,3.85,3.3,6.16,7.04,6.87,11.22h-10.89Z"/><path class="cls-1" d="M375.68,32.01c0-12.59,9.07-22.05,21.45-22.05s21.5,9.18,21.5,20.84-9.35,21.39-21.01,21.39-21.94-8.14-21.94-20.18Zm32.56-.88c0-6.38-4.56-12.04-11.11-12.04s-11.05,5.44-11.05,11.88,4.56,12.1,11.22,12.1,10.94-5.44,10.94-11.93Z"/><path class="cls-1" d="M424.52,51.43V10.73h10.39v31.57h12.04v9.13h-22.44Z"/><path class="cls-1" d="M451.3,51.43V10.73h10.39v31.57h12.04v9.13h-22.44Z"/><path class="cls-1" d="M477.81,51.43V10.73h22.6v9.13h-12.65v6.32h12.26v9.13h-12.26v6.98h12.65v9.13h-22.6Z"/><path class="cls-1" d="M548.43,30.59c0,10.94-8.03,21.67-21.72,21.67-12.04,0-21.61-9.4-21.61-21.34s9.95-20.95,21.78-20.95c9.18,0,18.04,6.21,20.35,14.41h-11.66c-1.92-3.35-5.06-5.28-8.96-5.28-6.54,0-11.11,5.28-11.11,11.82s4.29,12.21,11.16,12.21c4.84,0,8.47-2.36,9.73-6.54h-12.15v-8.3h24.2v2.31Z"/><path class="cls-1" d="M553.82,51.43V10.73h22.6v9.13h-12.65v6.32h12.26v9.13h-12.26v6.98h12.65v9.13h-22.6Z"/></g></g></g></svg>